<?xml version="1.0" encoding="utf-8"?>
<!-- Generator: Adobe Illustrator 16.0.0, SVG Export Plug-In . SVG Version: 6.00 Build 0)  -->
<!DOCTYPE svg PUBLIC "-//W3C//DTD SVG 1.1//EN" "http://www.w3.org/Graphics/SVG/1.1/DTD/svg11.dtd">
<svg version="1.1" id="Layer_1" xmlns="http://www.w3.org/2000/svg" xmlns:xlink="http://www.w3.org/1999/xlink" x="0px" y="0px"
	 width="1200px" height="97.736px" viewBox="0 0 1200 97.736" enable-background="new 0 0 1200 97.736" xml:space="preserve">
<g opacity="0.02">
	<path d="M1385.075,17.543c-21.896,22.326-51.741,38.074-84.042,44.343c-11.585,2.244-23.689,3.383-35.977,3.383
		c-30.381,0-61.988-6.734-93.944-20.018c-7.985-3.32-15.876-6.977-23.509-10.514c-23.328-10.81-45.361-21.019-67.504-21.02
		c-0.83,0-1.657,0.014-2.495,0.044c-20.297,0.717-41.203,10.723-61.424,20.4l-3.94,1.885
		c-28.336,13.492-59.186,26.932-92.755,33.838c-14.898,3.066-29.65,4.621-43.848,4.621c-1.686,0-3.437-0.029-5.489-0.088
		c-2.051,0.059-3.803,0.088-5.488,0.088c-14.198,0-28.95-1.555-43.848-4.621c-33.571-6.908-64.422-20.348-92.774-33.848
		l-3.924-1.875c-20.218-9.677-41.124-19.683-61.424-20.401c-0.834-0.029-1.662-0.043-2.493-0.043
		c-22.142,0-44.176,10.21-67.505,21.02c-7.635,3.537-15.528,7.195-23.51,10.516c-9.616,3.996-19.356,7.449-28.956,10.268
		c-7.651,2.684-15.551,4.824-23.488,6.365c-11.585,2.244-23.689,3.383-35.977,3.383c-0.682,0-1.366-0.012-2.051-0.025l-0.709-0.012
		l-0.709,0.012c-0.685,0.014-1.369,0.025-2.051,0.025c-12.287,0-24.393-1.139-35.982-3.385c-7.933-1.539-15.833-3.68-23.484-6.365
		c-9.61-2.82-19.351-6.273-28.958-10.268c-7.979-3.318-15.872-6.977-23.505-10.514c-23.329-10.809-45.363-21.019-67.507-21.02
		c-0.83,0-1.658,0.014-2.495,0.044c-20.294,0.717-41.201,10.723-61.424,20.4l-3.94,1.883c-28.334,13.494-59.182,26.932-92.755,33.84
		c-14.897,3.066-29.65,4.621-43.848,4.621c-21.569,0-41.784-3.57-60.085-10.607C4.735,53.693-19.289,35.996-42.188,9.788
		l-4.938-5.653v-50.589h1437.921v58.164L1385.075,17.543z"/>
</g>
<g>
	<path fill="#FFFFFF" d="M1385.075,6.293c-21.896,22.326-51.741,38.074-84.042,44.343c-11.585,2.244-23.689,3.383-35.977,3.383
		c-30.381,0-61.988-6.734-93.944-20.018c-7.985-3.32-15.876-6.977-23.509-10.514c-23.328-10.81-45.361-21.019-67.504-21.02
		c-0.83,0-1.657,0.014-2.495,0.044c-20.297,0.717-41.203,10.723-61.424,20.4l-3.94,1.884
		c-28.336,13.493-59.186,26.932-92.755,33.838c-14.898,3.066-29.65,4.621-43.848,4.621c-1.686,0-3.437-0.029-5.489-0.088
		c-2.051,0.059-3.803,0.088-5.488,0.088c-14.198,0-28.95-1.555-43.848-4.621c-33.571-6.908-64.422-20.348-92.774-33.848
		l-3.924-1.875c-20.218-9.677-41.124-19.683-61.424-20.4c-0.834-0.029-1.662-0.043-2.493-0.043
		c-22.142,0-44.176,10.21-67.505,21.021c-7.635,3.537-15.528,7.195-23.51,10.515c-9.616,3.996-19.356,7.449-28.956,10.268
		c-7.651,2.684-15.551,4.824-23.488,6.365c-11.585,2.244-23.689,3.383-35.977,3.383c-0.682,0-1.366-0.012-2.051-0.025l-0.709-0.012
		l-0.709,0.012c-0.685,0.014-1.369,0.025-2.051,0.025c-12.287,0-24.393-1.139-35.982-3.385c-7.933-1.539-15.833-3.68-23.484-6.365
		c-9.61-2.82-19.351-6.273-28.958-10.268c-7.979-3.318-15.872-6.976-23.505-10.513c-23.329-10.81-45.363-21.02-67.507-21.021
		c-0.83,0-1.658,0.014-2.495,0.044c-20.294,0.717-41.201,10.723-61.424,20.4l-3.94,1.883
		c-28.334,13.494-59.182,26.931-92.755,33.839c-14.897,3.066-29.65,4.621-43.848,4.621c-21.569,0-41.784-3.57-60.085-10.607
		C4.735,42.443-19.289,24.746-42.188-1.462l-4.938-5.653v-50.589h1437.921V0.459L1385.075,6.293z"/>
</g>
</svg>
