<?xml version="1.0" encoding="utf-8"?>
<!-- Generator: Adobe Illustrator 16.0.0, SVG Export Plug-In . SVG Version: 6.00 Build 0)  -->
<!DOCTYPE svg PUBLIC "-//W3C//DTD SVG 1.1//EN" "http://www.w3.org/Graphics/SVG/1.1/DTD/svg11.dtd">
<svg version="1.1" id="Layer_1" xmlns="http://www.w3.org/2000/svg" xmlns:xlink="http://www.w3.org/1999/xlink" x="0px" y="0px"
	 width="180.5px" height="30.542px" viewBox="0.583 0.333 180.5 30.542" enable-background="new 0.583 0.333 180.5 30.542"
	 xml:space="preserve">
<g>
	<path fill="#FFFFFF" d="M26.48,30.043h-7.743L6.238,8.306H6.061c0.249,3.839,0.373,6.578,0.373,8.215v13.521H0.99V1.31h7.685
		l12.48,21.521h0.137c-0.196-3.734-0.294-6.374-0.294-7.92V1.31h5.483V30.043z"/>
	<path fill="#FFFFFF" d="M43.186,30.437c-3.538,0-6.303-0.977-8.294-2.929c-1.992-1.952-2.987-4.717-2.987-8.294
		c0-3.682,0.92-6.528,2.761-8.539s4.386-3.017,7.635-3.017c3.105,0,5.523,0.884,7.252,2.653c1.729,1.769,2.594,4.212,2.594,7.331
		v2.909h-14.17c0.065,1.703,0.57,3.033,1.514,3.989c0.943,0.957,2.266,1.435,3.97,1.435c1.323,0,2.575-0.138,3.754-0.413
		c1.179-0.274,2.411-0.714,3.695-1.316v4.639c-1.048,0.523-2.169,0.913-3.361,1.169C46.356,30.309,44.902,30.437,43.186,30.437z
		 M42.341,11.922c-1.271,0-2.267,0.403-2.987,1.209c-0.721,0.806-1.134,1.949-1.238,3.429h8.412c-0.026-1.48-0.413-2.624-1.16-3.429
		C44.621,12.326,43.611,11.922,42.341,11.922z"/>
	<path fill="#FFFFFF" d="M61.523,18.821L54.447,8.07h6.8l4.265,6.997l4.304-6.997h6.801l-7.154,10.751l7.488,11.222h-6.82
		l-4.618-7.527l-4.638,7.527h-6.8L61.523,18.821z"/>
	<path fill="#FFFFFF" d="M89.548,25.66c1.048,0,2.306-0.229,3.773-0.688v4.461c-1.494,0.668-3.328,1.003-5.503,1.003
		c-2.397,0-4.144-0.606-5.237-1.818c-1.095-1.212-1.642-3.029-1.642-5.454V12.571h-2.869v-2.536l3.302-2.004l1.729-4.638h3.832V8.07
		h6.151v4.501h-6.151v10.593c0,0.853,0.239,1.481,0.718,1.887C88.129,25.457,88.762,25.66,89.548,25.66z"/>
	<path fill="#FFFFFF" d="M109.142,13.908h11.399v14.897c-1.848,0.603-3.587,1.025-5.218,1.268c-1.632,0.242-3.299,0.364-5.002,0.364
		c-4.337,0-7.648-1.274-9.935-3.823c-2.287-2.548-3.43-6.207-3.43-10.976c0-4.638,1.326-8.254,3.979-10.849
		s6.332-3.892,11.035-3.892c2.948,0,5.791,0.59,8.53,1.769l-2.024,4.874c-2.097-1.048-4.278-1.572-6.545-1.572
		c-2.634,0-4.743,0.884-6.328,2.653c-1.586,1.769-2.378,4.147-2.378,7.134c0,3.118,0.639,5.5,1.916,7.145
		c1.277,1.644,3.135,2.466,5.571,2.466c1.271,0,2.562-0.131,3.872-0.393v-5.994h-5.444V13.908z"/>
	<path fill="#FFFFFF" d="M136.853,30.437c-3.537,0-6.302-0.977-8.293-2.929c-1.992-1.952-2.987-4.717-2.987-8.294
		c0-3.682,0.92-6.528,2.761-8.539s4.386-3.017,7.636-3.017c3.104,0,5.522,0.884,7.252,2.653c1.729,1.769,2.594,4.212,2.594,7.331
		v2.909h-14.17c0.065,1.703,0.57,3.033,1.514,3.989c0.943,0.957,2.267,1.435,3.97,1.435c1.323,0,2.574-0.138,3.754-0.413
		c1.179-0.274,2.41-0.714,3.694-1.316v4.639c-1.048,0.523-2.168,0.913-3.36,1.169S138.57,30.437,136.853,30.437z M136.008,11.922
		c-1.271,0-2.267,0.403-2.987,1.209s-1.134,1.949-1.238,3.429h8.412c-0.027-1.48-0.413-2.624-1.16-3.429
		S137.279,11.922,136.008,11.922z"/>
	<path fill="#FFFFFF" d="M170.972,30.043h-5.994V17.209c0-1.585-0.282-2.774-0.845-3.567c-0.564-0.792-1.462-1.189-2.693-1.189
		c-1.677,0-2.889,0.56-3.636,1.681c-0.746,1.12-1.12,2.978-1.12,5.571v10.338h-5.994V8.07h4.579l0.806,2.811h0.334
		c0.669-1.061,1.589-1.864,2.762-2.407c1.173-0.544,2.506-0.816,3.999-0.816c2.556,0,4.494,0.691,5.817,2.074
		s1.985,3.377,1.985,5.984V30.043z"/>
</g>
<path fill="#00E29A" d="M180.083,26.293c0,2.301-1.865,4.166-4.167,4.166l0,0c-2.301,0-4.166-1.865-4.166-4.166l0,0
	c0-2.302,1.865-4.167,4.166-4.167l0,0C178.217,22.126,180.083,23.991,180.083,26.293L180.083,26.293z"/>
</svg>
